<svg xmlns="http://www.w3.org/2000/svg" xmlns:xlink="http://www.w3.org/1999/xlink" width="500" zoomAndPan="magnify" viewBox="0 0 375 374.999991" height="500" preserveAspectRatio="xMidYMid meet" version="1.0"><defs><clipPath id="901129478a"><path d="M 30.835938 107.078125 L 344.1875 107.078125 L 344.1875 267.898438 L 30.835938 267.898438 Z M 30.835938 107.078125 " clip-rule="nonzero"/></clipPath><clipPath id="3610d92f97"><path d="M 30.835938 104.828125 L 344.1875 104.828125 L 344.1875 265.648438 L 30.835938 265.648438 Z M 30.835938 104.828125 " clip-rule="nonzero"/></clipPath><clipPath id="d5c45b9e32"><path d="M 31.5 108.578125 L 344.851562 108.578125 L 344.851562 269.398438 L 31.5 269.398438 Z M 31.5 108.578125 " clip-rule="nonzero"/></clipPath><clipPath id="3fb8b0441d"><path d="M 30.085938 109.328125 L 343.4375 109.328125 L 343.4375 270.148438 L 30.085938 270.148438 Z M 30.085938 109.328125 " clip-rule="nonzero"/></clipPath><clipPath id="2b96200c33"><path d="M 31.5 105.578125 L 344.851562 105.578125 L 344.851562 266.398438 L 31.5 266.398438 Z M 31.5 105.578125 " clip-rule="nonzero"/></clipPath><clipPath id="179cec79c0"><path d="M 33 108.578125 L 346.351562 108.578125 L 346.351562 269.398438 L 33 269.398438 Z M 33 108.578125 " clip-rule="nonzero"/></clipPath></defs><g clip-path="url(#901129478a)"><path fill="#734a40" d="M 336.28125 181.566406 C 336.28125 187.695312 336.28125 193.828125 336.28125 200.027344 C 339.453125 199.941406 341.382812 198.535156 341.601562 195.917969 C 341.886719 192.511719 341.847656 189.007812 341.386719 185.625 C 340.976562 182.644531 339.488281 181.804688 336.28125 181.566406 Z M 38.597656 199.988281 C 38.597656 193.671875 38.597656 187.597656 38.597656 181.421875 C 35.480469 181.324219 33.6875 182.902344 33.351562 185.410156 C 32.898438 188.796875 32.792969 192.292969 33.085938 195.691406 C 33.34375 198.703125 34.5625 199.40625 38.597656 199.988281 Z M 112.945312 188.179688 C 112.945312 196.128906 112.9375 204.070312 112.949219 212.019531 C 112.953125 213.363281 112.730469 214.96875 114.753906 215.042969 C 116.5 215.109375 117.523438 214.054688 117.871094 212.421875 C 118.046875 211.582031 118.035156 210.691406 118.039062 209.824219 C 118.046875 195.050781 118.046875 180.277344 118.042969 165.5 C 118.042969 164.757812 118.273438 163.8125 117.910156 163.316406 C 117.316406 162.507812 116.335938 161.503906 115.5 161.488281 C 114.699219 161.46875 113.589844 162.449219 113.144531 163.273438 C 112.722656 164.0625 112.949219 165.210938 112.945312 166.203125 C 112.9375 173.527344 112.941406 180.851562 112.945312 188.179688 Z M 261.777344 188.632812 C 261.78125 188.632812 261.785156 188.632812 261.785156 188.632812 C 261.785156 183.917969 261.785156 179.199219 261.785156 174.480469 C 261.785156 171.378906 261.777344 168.273438 261.777344 165.171875 C 261.777344 163.347656 261.667969 161.410156 259.277344 161.394531 C 256.976562 161.378906 256.519531 163.078125 256.710938 165.046875 C 256.757812 165.539062 256.71875 166.039062 256.71875 166.535156 C 256.71875 173.488281 256.710938 180.441406 256.714844 187.390625 C 256.71875 195.335938 256.6875 203.28125 256.765625 211.226562 C 256.792969 213.765625 258.027344 215.167969 259.863281 215.039062 C 262.417969 214.863281 261.738281 212.816406 261.75 211.351562 C 261.808594 203.777344 261.777344 196.207031 261.777344 188.632812 Z M 327.003906 214.808594 C 331.460938 214.269531 333.453125 212.414062 333.515625 207.902344 C 333.6875 194.769531 333.675781 181.632812 333.539062 168.5 C 333.496094 164.375 331.175781 163.109375 327.003906 164.425781 C 327.003906 181.121094 327.003906 197.828125 327.003906 214.808594 Z M 47.722656 164.175781 C 42.871094 163.429688 41.214844 164.5 41.148438 168.929688 C 40.960938 181.1875 40.960938 193.449219 41.011719 205.710938 C 41.015625 207.648438 41.429688 209.675781 42.105469 211.496094 C 43.066406 214.074219 44.515625 214.6875 47.722656 214.464844 C 47.722656 197.78125 47.722656 181.089844 47.722656 164.175781 Z M 311.636719 233.300781 C 312.519531 233.566406 312.753906 233.65625 312.996094 233.703125 C 321.277344 235.230469 324.667969 232.519531 324.667969 224.300781 C 324.679688 198.707031 324.675781 173.109375 324.671875 147.515625 C 324.671875 146.644531 324.902344 145.660156 324.574219 144.929688 C 324.109375 143.894531 323.40625 142.566406 322.484375 142.214844 C 320.789062 141.578125 318.847656 141.273438 317.027344 141.351562 C 313.226562 141.507812 311.640625 143.382812 311.640625 147.195312 C 311.636719 174.53125 311.636719 201.863281 311.636719 229.195312 C 311.636719 230.535156 311.636719 231.871094 311.636719 233.300781 Z M 62.980469 233.804688 C 62.980469 231.847656 62.980469 230.5 62.980469 229.148438 C 62.980469 219.335938 62.980469 209.519531 62.980469 199.703125 C 62.980469 182.058594 62.992188 164.417969 62.957031 146.773438 C 62.953125 145.601562 62.90625 144.164062 62.269531 143.304688 C 60.621094 141.101562 55.636719 140.683594 52.113281 142.132812 C 49.496094 143.210938 50.007812 145.519531 50.003906 147.5625 C 49.972656 161.101562 49.976562 174.644531 49.996094 188.191406 C 50.007812 201.234375 50.019531 214.28125 50.109375 227.324219 C 50.132812 230.933594 51.898438 233.136719 55.476562 233.734375 C 57.742188 234.109375 60.125 233.804688 62.980469 233.804688 Z M 120.226562 179.328125 C 120.226562 181.90625 120.226562 183.757812 120.226562 185.613281 C 120.226562 187.550781 120.226562 189.492188 120.226562 191.480469 C 165.265625 191.480469 209.78125 191.480469 254.273438 191.480469 C 254.273438 187.386719 254.273438 183.597656 254.273438 179.328125 C 209.597656 179.328125 165.179688 179.328125 120.226562 179.328125 Z M 309.550781 185.109375 C 309.550781 166.976562 309.550781 148.84375 309.554688 130.714844 C 309.558594 126.066406 307.90625 124.113281 303.28125 124.140625 C 300.871094 124.15625 298.421875 124.808594 296.066406 125.460938 C 293.246094 126.242188 292.234375 128.070312 292.246094 131.238281 C 292.386719 167.5 292.394531 203.765625 292.234375 240.027344 C 292.222656 243.5 293.664062 245.339844 296.347656 246.699219 C 299.863281 248.484375 303.238281 247.878906 306.667969 246.136719 C 309.792969 244.546875 309.570312 241.894531 309.566406 239.132812 C 309.539062 221.125 309.550781 203.117188 309.550781 185.109375 Z M 65.160156 184.820312 C 65.160156 193.019531 65.160156 201.214844 65.160156 209.414062 C 65.160156 219.847656 65.25 230.285156 65.105469 240.714844 C 65.066406 243.476562 66.039062 245.226562 68.449219 246.300781 C 69.464844 246.753906 70.484375 247.253906 71.558594 247.511719 C 74.949219 248.316406 77.78125 247.179688 80.597656 245.222656 C 83.019531 243.542969 82.339844 241.316406 82.34375 239.214844 C 82.382812 210.523438 82.371094 181.828125 82.371094 153.136719 C 82.367188 145.683594 82.21875 138.226562 82.445312 130.777344 C 82.53125 128.082031 81.492188 126.789062 79.265625 125.691406 C 76.367188 124.261719 73.378906 123.757812 70.242188 124.15625 C 66.648438 124.609375 65.160156 126.410156 65.160156 130.039062 C 65.160156 148.300781 65.160156 166.5625 65.160156 184.820312 Z M 84.554688 187.332031 C 84.554688 210.183594 84.601562 233.039062 84.496094 255.894531 C 84.480469 259.011719 85.691406 261.085938 88.09375 262.746094 C 91.507812 265.09375 95.335938 266.105469 99.398438 265.652344 C 105.886719 264.933594 111.09375 262.914062 110.894531 253.746094 C 110.523438 236.613281 110.789062 219.46875 110.785156 202.324219 C 110.78125 174.75 110.75 147.175781 110.816406 119.605469 C 110.828125 116.347656 110.101562 113.628906 107.117188 112.0625 C 102.007812 109.378906 96.570312 108.410156 90.914062 109.933594 C 86.699219 111.070312 84.550781 114.089844 84.550781 118.394531 C 84.546875 141.371094 84.546875 164.351562 84.554688 187.332031 Z M 290.199219 187.3125 C 290.199219 164.453125 290.199219 141.597656 290.203125 118.738281 C 290.203125 114.03125 287.996094 110.988281 283.414062 109.832031 C 278 108.464844 272.796875 109.4375 267.882812 111.878906 C 264.933594 113.347656 263.796875 115.917969 263.800781 119.234375 C 263.835938 164.203125 263.824219 209.164062 263.800781 254.132812 C 263.800781 261.128906 265.890625 263.695312 273.101562 265.375 C 276.558594 266.179688 280.011719 265.800781 283.335938 264.484375 C 288.605469 262.398438 290.207031 260.054688 290.207031 254.390625 C 290.207031 232.03125 290.207031 209.671875 290.199219 187.3125 Z M 254.519531 193.949219 C 209.621094 193.949219 165.199219 193.949219 120.230469 193.949219 C 120.230469 197.054688 120.230469 199.988281 120.230469 202.921875 C 120.230469 205.03125 120.21875 207.144531 120.230469 209.257812 C 120.253906 215.296875 119.179688 216.59375 112.941406 217.671875 C 112.941406 218.941406 112.941406 220.28125 112.941406 221.621094 C 112.964844 233.425781 113.003906 245.226562 112.992188 257.03125 C 112.992188 260.554688 111.160156 263.121094 108.339844 265.011719 C 101.847656 269.367188 91.566406 268.714844 85.691406 263.5625 C 83.261719 261.429688 81.707031 259.003906 82.265625 255.425781 C 82.675781 252.800781 82.347656 250.058594 82.347656 246.960938 C 80.597656 247.878906 79.371094 248.738281 78.011719 249.199219 C 72.9375 250.921875 68.414062 249.617188 64.59375 246.101562 C 63.65625 245.238281 63.203125 243.585938 63.019531 242.234375 C 62.757812 240.308594 62.953125 238.316406 62.953125 236.152344 C 61.082031 236.152344 59.507812 236.15625 57.933594 236.152344 C 51.117188 236.121094 47.691406 232.582031 47.855469 225.8125 C 47.921875 222.964844 47.867188 220.121094 47.867188 217.226562 C 38.410156 216.304688 39.164062 209.082031 38.667969 202.660156 C 37.621094 202.351562 36.6875 202.050781 35.742188 201.804688 C 33.03125 201.089844 31.253906 199.175781 31.042969 196.597656 C 30.726562 192.804688 30.753906 188.914062 31.238281 185.136719 C 31.746094 181.183594 34.695312 179.328125 38.984375 178.890625 C 38.984375 175.230469 38.84375 171.65625 39.023438 168.105469 C 39.207031 164.449219 40.816406 162.507812 43.808594 161.898438 C 45.011719 161.65625 46.253906 161.617188 47.871094 161.441406 C 47.871094 156.304688 47.863281 151.121094 47.878906 145.9375 C 47.886719 141.886719 48.8125 140.414062 52.8125 139.863281 C 56.027344 139.417969 59.351562 139.773438 62.960938 139.773438 C 62.960938 136.683594 63.027344 133.222656 62.945312 129.765625 C 62.851562 125.839844 64.125 123.804688 67.847656 122.554688 C 71.679688 121.269531 75.441406 121.746094 79.109375 123.265625 C 80.011719 123.640625 80.890625 124.074219 82.277344 124.703125 C 82.277344 123.042969 82.421875 121.726562 82.253906 120.457031 C 81.445312 114.332031 84.914062 109.078125 90.902344 107.6875 C 96.429688 106.40625 101.824219 107.207031 106.898438 109.519531 C 110.894531 111.339844 113.101562 114.367188 113.015625 119.183594 C 112.796875 131.230469 112.941406 143.28125 112.941406 155.335938 C 112.941406 156.550781 112.941406 157.773438 112.941406 159.105469 C 113.832031 159.105469 114.429688 159.0625 115.019531 159.113281 C 118.683594 159.425781 120.320312 161.246094 120.296875 164.894531 C 120.273438 168.96875 120.292969 173.042969 120.292969 176.917969 C 165.039062 176.917969 209.476562 176.917969 254.523438 176.917969 C 254.523438 173.578125 254.566406 169.90625 254.511719 166.238281 C 254.433594 160.570312 255.503906 159.390625 261.785156 158.941406 C 261.785156 157.664062 261.785156 156.347656 261.785156 155.03125 C 261.785156 142.980469 261.902344 130.925781 261.714844 118.878906 C 261.644531 114.554688 263.539062 111.6875 267.085938 109.898438 C 272.449219 107.195312 278.195312 106.335938 284.09375 107.769531 C 289.75 109.144531 293.210938 114.363281 292.523438 120.085938 C 292.421875 120.945312 292.371094 121.816406 292.363281 122.679688 C 292.355469 123.15625 292.480469 123.640625 292.578125 124.339844 C 294.90625 123.570312 297.046875 122.640625 299.277344 122.175781 C 303.042969 121.390625 306.679688 121.714844 309.835938 124.316406 C 311.398438 125.601562 312.023438 127.019531 311.863281 129.15625 C 311.589844 132.714844 311.785156 136.308594 311.785156 139.5625 C 315.34375 139.648438 318.742188 139.417969 322.042969 139.882812 C 325.734375 140.40625 326.824219 142.054688 326.855469 145.730469 C 326.902344 150.820312 326.914062 155.910156 326.949219 161.007812 C 326.949219 161.117188 327.054688 161.222656 327.175781 161.460938 C 327.414062 161.519531 327.746094 161.660156 328.078125 161.671875 C 333.609375 161.824219 335.644531 163.792969 335.808594 169.363281 C 335.902344 172.445312 335.828125 175.535156 335.828125 178.035156 C 338.230469 179.535156 340.78125 180.324219 341.9375 182.046875 C 343.289062 184.066406 343.496094 186.886719 344.066406 189.386719 C 344.28125 190.335938 344.144531 191.363281 344.128906 192.359375 C 344.039062 199.078125 342.734375 200.769531 336.109375 202.632812 C 335.511719 208.859375 336.371094 216.125 326.882812 217.222656 C 326.882812 220.378906 326.84375 223.578125 326.894531 226.777344 C 326.976562 231.8125 323.832031 235.511719 318.746094 236.015625 C 316.558594 236.234375 314.332031 236.050781 311.6875 236.050781 C 311.6875 238.199219 311.480469 240.171875 311.742188 242.078125 C 312.023438 244.117188 311.132812 245.382812 309.738281 246.5625 C 305.0625 250.515625 299.550781 250.988281 294.207031 247.890625 C 293.796875 247.652344 293.363281 247.457031 292.351562 246.941406 C 292.351562 250.039062 292.023438 252.753906 292.4375 255.347656 C 292.949219 258.585938 291.71875 260.914062 289.617188 263.003906 C 283.8125 268.773438 272.300781 269.609375 265.828125 264.628906 C 262.960938 262.421875 261.566406 259.636719 261.660156 255.671875 C 261.949219 243.378906 261.761719 231.074219 261.746094 218.777344 C 261.746094 218.421875 261.589844 218.066406 261.460938 217.53125 C 260.898438 217.453125 260.308594 217.386719 259.726562 217.28125 C 256.003906 216.605469 254.535156 214.800781 254.523438 210.84375 C 254.507812 205.398438 254.519531 199.949219 254.519531 193.949219 " fill-opacity="1" fill-rule="nonzero"/></g><g clip-path="url(#3610d92f97)"><path fill="#734a40" d="M 336.28125 179.316406 C 336.28125 185.445312 336.28125 191.578125 336.28125 197.777344 C 339.453125 197.691406 341.382812 196.285156 341.601562 193.667969 C 341.886719 190.261719 341.847656 186.757812 341.386719 183.375 C 340.976562 180.394531 339.488281 179.554688 336.28125 179.316406 Z M 38.597656 197.738281 C 38.597656 191.421875 38.597656 185.347656 38.597656 179.171875 C 35.480469 179.074219 33.6875 180.652344 33.351562 183.160156 C 32.898438 186.546875 32.792969 190.042969 33.085938 193.441406 C 33.34375 196.453125 34.5625 197.15625 38.597656 197.738281 Z M 112.945312 185.929688 C 112.945312 193.878906 112.9375 201.820312 112.949219 209.769531 C 112.953125 211.113281 112.730469 212.71875 114.753906 212.792969 C 116.5 212.859375 117.523438 211.804688 117.871094 210.171875 C 118.046875 209.332031 118.035156 208.441406 118.039062 207.574219 C 118.046875 192.800781 118.046875 178.027344 118.042969 163.25 C 118.042969 162.507812 118.273438 161.5625 117.910156 161.066406 C 117.316406 160.257812 116.335938 159.253906 115.5 159.238281 C 114.699219 159.21875 113.589844 160.199219 113.144531 161.023438 C 112.722656 161.8125 112.949219 162.960938 112.945312 163.953125 C 112.9375 171.277344 112.941406 178.601562 112.945312 185.929688 Z M 261.777344 186.382812 C 261.78125 186.382812 261.785156 186.382812 261.785156 186.382812 C 261.785156 181.667969 261.785156 176.949219 261.785156 172.230469 C 261.785156 169.128906 261.777344 166.023438 261.777344 162.921875 C 261.777344 161.097656 261.667969 159.160156 259.277344 159.144531 C 256.976562 159.128906 256.519531 160.828125 256.710938 162.796875 C 256.757812 163.289062 256.71875 163.789062 256.71875 164.285156 C 256.71875 171.238281 256.710938 178.191406 256.714844 185.140625 C 256.71875 193.085938 256.6875 201.03125 256.765625 208.976562 C 256.792969 211.515625 258.027344 212.917969 259.863281 212.789062 C 262.417969 212.613281 261.738281 210.566406 261.75 209.101562 C 261.808594 201.527344 261.777344 193.957031 261.777344 186.382812 Z M 327.003906 212.558594 C 331.460938 212.019531 333.453125 210.164062 333.515625 205.652344 C 333.6875 192.519531 333.675781 179.382812 333.539062 166.25 C 333.496094 162.125 331.175781 160.859375 327.003906 162.175781 C 327.003906 178.871094 327.003906 195.578125 327.003906 212.558594 Z M 47.722656 161.925781 C 42.871094 161.179688 41.214844 162.25 41.148438 166.679688 C 40.960938 178.9375 40.960938 191.199219 41.011719 203.460938 C 41.015625 205.398438 41.429688 207.425781 42.105469 209.246094 C 43.066406 211.824219 44.515625 212.4375 47.722656 212.214844 C 47.722656 195.53125 47.722656 178.839844 47.722656 161.925781 Z M 311.636719 231.050781 C 312.519531 231.316406 312.753906 231.40625 312.996094 231.453125 C 321.277344 232.980469 324.667969 230.269531 324.667969 222.050781 C 324.679688 196.457031 324.675781 170.859375 324.671875 145.265625 C 324.671875 144.394531 324.902344 143.410156 324.574219 142.679688 C 324.109375 141.644531 323.40625 140.316406 322.484375 139.964844 C 320.789062 139.328125 318.847656 139.023438 317.027344 139.101562 C 313.226562 139.257812 311.640625 141.132812 311.640625 144.945312 C 311.636719 172.28125 311.636719 199.613281 311.636719 226.945312 C 311.636719 228.285156 311.636719 229.621094 311.636719 231.050781 Z M 62.980469 231.554688 C 62.980469 229.597656 62.980469 228.25 62.980469 226.898438 C 62.980469 217.085938 62.980469 207.269531 62.980469 197.453125 C 62.980469 179.808594 62.992188 162.167969 62.957031 144.523438 C 62.953125 143.351562 62.90625 141.914062 62.269531 141.054688 C 60.621094 138.851562 55.636719 138.433594 52.113281 139.882812 C 49.496094 140.960938 50.007812 143.269531 50.003906 145.3125 C 49.972656 158.851562 49.976562 172.394531 49.996094 185.941406 C 50.007812 198.984375 50.019531 212.03125 50.109375 225.074219 C 50.132812 228.683594 51.898438 230.886719 55.476562 231.484375 C 57.742188 231.859375 60.125 231.554688 62.980469 231.554688 Z M 120.226562 177.078125 C 120.226562 179.65625 120.226562 181.507812 120.226562 183.363281 C 120.226562 185.300781 120.226562 187.242188 120.226562 189.230469 C 165.265625 189.230469 209.78125 189.230469 254.273438 189.230469 C 254.273438 185.136719 254.273438 181.347656 254.273438 177.078125 C 209.597656 177.078125 165.179688 177.078125 120.226562 177.078125 Z M 309.550781 182.859375 C 309.550781 164.726562 309.550781 146.59375 309.554688 128.464844 C 309.558594 123.816406 307.90625 121.863281 303.28125 121.890625 C 300.871094 121.90625 298.421875 122.558594 296.066406 123.210938 C 293.246094 123.992188 292.234375 125.820312 292.246094 128.988281 C 292.386719 165.25 292.394531 201.515625 292.234375 237.777344 C 292.222656 241.25 293.664062 243.089844 296.347656 244.449219 C 299.863281 246.234375 303.238281 245.628906 306.667969 243.886719 C 309.792969 242.296875 309.570312 239.644531 309.566406 236.882812 C 309.539062 218.875 309.550781 200.867188 309.550781 182.859375 Z M 65.160156 182.570312 C 65.160156 190.769531 65.160156 198.964844 65.160156 207.164062 C 65.160156 217.597656 65.25 228.035156 65.105469 238.464844 C 65.066406 241.226562 66.039062 242.976562 68.449219 244.050781 C 69.464844 244.503906 70.484375 245.003906 71.558594 245.261719 C 74.949219 246.066406 77.78125 244.929688 80.597656 242.972656 C 83.019531 241.292969 82.339844 239.066406 82.34375 236.964844 C 82.382812 208.273438 82.371094 179.578125 82.371094 150.886719 C 82.367188 143.433594 82.21875 135.976562 82.445312 128.527344 C 82.53125 125.832031 81.492188 124.539062 79.265625 123.441406 C 76.367188 122.011719 73.378906 121.507812 70.242188 121.90625 C 66.648438 122.359375 65.160156 124.160156 65.160156 127.789062 C 65.160156 146.050781 65.160156 164.3125 65.160156 182.570312 Z M 84.554688 185.082031 C 84.554688 207.933594 84.601562 230.789062 84.496094 253.644531 C 84.480469 256.761719 85.691406 258.835938 88.09375 260.496094 C 91.507812 262.84375 95.335938 263.855469 99.398438 263.402344 C 105.886719 262.683594 111.09375 260.664062 110.894531 251.496094 C 110.523438 234.363281 110.789062 217.21875 110.785156 200.074219 C 110.78125 172.5 110.75 144.925781 110.816406 117.355469 C 110.828125 114.097656 110.101562 111.378906 107.117188 109.8125 C 102.007812 107.128906 96.570312 106.160156 90.914062 107.683594 C 86.699219 108.820312 84.550781 111.839844 84.550781 116.144531 C 84.546875 139.121094 84.546875 162.101562 84.554688 185.082031 Z M 290.199219 185.0625 C 290.199219 162.203125 290.199219 139.347656 290.203125 116.488281 C 290.203125 111.78125 287.996094 108.738281 283.414062 107.582031 C 278 106.214844 272.796875 107.1875 267.882812 109.628906 C 264.933594 111.097656 263.796875 113.667969 263.800781 116.984375 C 263.835938 161.953125 263.824219 206.914062 263.800781 251.882812 C 263.800781 258.878906 265.890625 261.445312 273.101562 263.125 C 276.558594 263.929688 280.011719 263.550781 283.335938 262.234375 C 288.605469 260.148438 290.207031 257.804688 290.207031 252.140625 C 290.207031 229.78125 290.207031 207.421875 290.199219 185.0625 Z M 254.519531 191.699219 C 209.621094 191.699219 165.199219 191.699219 120.230469 191.699219 C 120.230469 194.804688 120.230469 197.738281 120.230469 200.671875 C 120.230469 202.78125 120.21875 204.894531 120.230469 207.007812 C 120.253906 213.046875 119.179688 214.34375 112.941406 215.421875 C 112.941406 216.691406 112.941406 218.03125 112.941406 219.371094 C 112.964844 231.175781 113.003906 242.976562 112.992188 254.78125 C 112.992188 258.304688 111.160156 260.871094 108.339844 262.761719 C 101.847656 267.117188 91.566406 266.464844 85.691406 261.3125 C 83.261719 259.179688 81.707031 256.753906 82.265625 253.175781 C 82.675781 250.550781 82.347656 247.808594 82.347656 244.710938 C 80.597656 245.628906 79.371094 246.488281 78.011719 246.949219 C 72.9375 248.671875 68.414062 247.367188 64.59375 243.851562 C 63.65625 242.988281 63.203125 241.335938 63.019531 239.984375 C 62.757812 238.058594 62.953125 236.066406 62.953125 233.902344 C 61.082031 233.902344 59.507812 233.90625 57.933594 233.902344 C 51.117188 233.871094 47.691406 230.332031 47.855469 223.5625 C 47.921875 220.714844 47.867188 217.871094 47.867188 214.976562 C 38.410156 214.054688 39.164062 206.832031 38.667969 200.410156 C 37.621094 200.101562 36.6875 199.800781 35.742188 199.554688 C 33.03125 198.839844 31.253906 196.925781 31.042969 194.347656 C 30.726562 190.554688 30.753906 186.664062 31.238281 182.886719 C 31.746094 178.933594 34.695312 177.078125 38.984375 176.640625 C 38.984375 172.980469 38.84375 169.40625 39.023438 165.855469 C 39.207031 162.199219 40.816406 160.257812 43.808594 159.648438 C 45.011719 159.40625 46.253906 159.367188 47.871094 159.191406 C 47.871094 154.054688 47.863281 148.871094 47.878906 143.6875 C 47.886719 139.636719 48.8125 138.164062 52.8125 137.613281 C 56.027344 137.167969 59.351562 137.523438 62.960938 137.523438 C 62.960938 134.433594 63.027344 130.972656 62.945312 127.515625 C 62.851562 123.589844 64.125 121.554688 67.847656 120.304688 C 71.679688 119.019531 75.441406 119.496094 79.109375 121.015625 C 80.011719 121.390625 80.890625 121.824219 82.277344 122.453125 C 82.277344 120.792969 82.421875 119.476562 82.253906 118.207031 C 81.445312 112.082031 84.914062 106.828125 90.902344 105.4375 C 96.429688 104.15625 101.824219 104.957031 106.898438 107.269531 C 110.894531 109.089844 113.101562 112.117188 113.015625 116.933594 C 112.796875 128.980469 112.941406 141.03125 112.941406 153.085938 C 112.941406 154.300781 112.941406 155.523438 112.941406 156.855469 C 113.832031 156.855469 114.429688 156.8125 115.019531 156.863281 C 118.683594 157.175781 120.320312 158.996094 120.296875 162.644531 C 120.273438 166.71875 120.292969 170.792969 120.292969 174.667969 C 165.039062 174.667969 209.476562 174.667969 254.523438 174.667969 C 254.523438 171.328125 254.566406 167.65625 254.511719 163.988281 C 254.433594 158.320312 255.503906 157.140625 261.785156 156.691406 C 261.785156 155.414062 261.785156 154.097656 261.785156 152.78125 C 261.785156 140.730469 261.902344 128.675781 261.714844 116.628906 C 261.644531 112.304688 263.539062 109.4375 267.085938 107.648438 C 272.449219 104.945312 278.195312 104.085938 284.09375 105.519531 C 289.75 106.894531 293.210938 112.113281 292.523438 117.835938 C 292.421875 118.695312 292.371094 119.566406 292.363281 120.429688 C 292.355469 120.90625 292.480469 121.390625 292.578125 122.089844 C 294.90625 121.320312 297.046875 120.390625 299.277344 119.925781 C 303.042969 119.140625 306.679688 119.464844 309.835938 122.066406 C 311.398438 123.351562 312.023438 124.769531 311.863281 126.90625 C 311.589844 130.464844 311.785156 134.058594 311.785156 137.3125 C 315.34375 137.398438 318.742188 137.167969 322.042969 137.632812 C 325.734375 138.15625 326.824219 139.804688 326.855469 143.480469 C 326.902344 148.570312 326.914062 153.660156 326.949219 158.757812 C 326.949219 158.867188 327.054688 158.972656 327.175781 159.210938 C 327.414062 159.269531 327.746094 159.410156 328.078125 159.421875 C 333.609375 159.574219 335.644531 161.542969 335.808594 167.113281 C 335.902344 170.195312 335.828125 173.285156 335.828125 175.785156 C 338.230469 177.285156 340.78125 178.074219 341.9375 179.796875 C 343.289062 181.816406 343.496094 184.636719 344.066406 187.136719 C 344.28125 188.085938 344.144531 189.113281 344.128906 190.109375 C 344.039062 196.828125 342.734375 198.519531 336.109375 200.382812 C 335.511719 206.609375 336.371094 213.875 326.882812 214.972656 C 326.882812 218.128906 326.84375 221.328125 326.894531 224.527344 C 326.976562 229.5625 323.832031 233.261719 318.746094 233.765625 C 316.558594 233.984375 314.332031 233.800781 311.6875 233.800781 C 311.6875 235.949219 311.480469 237.921875 311.742188 239.828125 C 312.023438 241.867188 311.132812 243.132812 309.738281 244.3125 C 305.0625 248.265625 299.550781 248.738281 294.207031 245.640625 C 293.796875 245.402344 293.363281 245.207031 292.351562 244.691406 C 292.351562 247.789062 292.023438 250.503906 292.4375 253.097656 C 292.949219 256.335938 291.71875 258.664062 289.617188 260.753906 C 283.8125 266.523438 272.300781 267.359375 265.828125 262.378906 C 262.960938 260.171875 261.566406 257.386719 261.660156 253.421875 C 261.949219 241.128906 261.761719 228.824219 261.746094 216.527344 C 261.746094 216.171875 261.589844 215.816406 261.460938 215.28125 C 260.898438 215.203125 260.308594 215.136719 259.726562 215.03125 C 256.003906 214.355469 254.535156 212.550781 254.523438 208.59375 C 254.507812 203.148438 254.519531 197.699219 254.519531 191.699219 " fill-opacity="1" fill-rule="nonzero"/></g><g clip-path="url(#d5c45b9e32)"><path fill="#734a40" d="M 336.949219 183.066406 C 336.949219 189.195312 336.949219 195.328125 336.949219 201.527344 C 340.117188 201.441406 342.046875 200.035156 342.265625 197.417969 C 342.550781 194.011719 342.515625 190.507812 342.050781 187.125 C 341.644531 184.144531 340.15625 183.304688 336.949219 183.066406 Z M 39.261719 201.488281 C 39.261719 195.171875 39.261719 189.097656 39.261719 182.921875 C 36.144531 182.824219 34.351562 184.402344 34.015625 186.910156 C 33.566406 190.296875 33.457031 193.792969 33.75 197.191406 C 34.011719 200.203125 35.226562 200.90625 39.261719 201.488281 Z M 113.609375 189.679688 C 113.609375 197.628906 113.605469 205.570312 113.617188 213.519531 C 113.617188 214.863281 113.394531 216.46875 115.421875 216.542969 C 117.164062 216.609375 118.1875 215.554688 118.535156 213.921875 C 118.710938 213.082031 118.699219 212.191406 118.703125 211.324219 C 118.710938 196.550781 118.710938 181.777344 118.710938 167 C 118.710938 166.257812 118.941406 165.3125 118.574219 164.816406 C 117.980469 164.007812 117 163.003906 116.164062 162.988281 C 115.367188 162.96875 114.257812 163.949219 113.808594 164.773438 C 113.386719 165.5625 113.617188 166.710938 113.613281 167.703125 C 113.605469 175.027344 113.605469 182.351562 113.609375 189.679688 Z M 262.441406 190.132812 C 262.445312 190.132812 262.449219 190.132812 262.453125 190.132812 C 262.453125 185.417969 262.453125 180.699219 262.453125 175.980469 C 262.449219 172.878906 262.441406 169.773438 262.441406 166.671875 C 262.441406 164.847656 262.332031 162.910156 259.941406 162.894531 C 257.644531 162.878906 257.183594 164.578125 257.378906 166.546875 C 257.425781 167.039062 257.382812 167.539062 257.382812 168.035156 C 257.382812 174.988281 257.378906 181.941406 257.382812 188.890625 C 257.382812 196.835938 257.351562 204.78125 257.429688 212.726562 C 257.460938 215.265625 258.691406 216.667969 260.53125 216.539062 C 263.085938 216.363281 262.40625 214.316406 262.417969 212.851562 C 262.476562 205.277344 262.441406 197.707031 262.441406 190.132812 Z M 327.671875 216.308594 C 332.128906 215.769531 334.121094 213.914062 334.179688 209.402344 C 334.351562 196.269531 334.339844 183.132812 334.203125 170 C 334.160156 165.875 331.839844 164.609375 327.671875 165.925781 C 327.671875 182.621094 327.671875 199.328125 327.671875 216.308594 Z M 48.386719 165.675781 C 43.535156 164.929688 41.882812 166 41.8125 170.429688 C 41.625 182.6875 41.625 194.949219 41.675781 207.210938 C 41.683594 209.148438 42.09375 211.175781 42.769531 212.996094 C 43.730469 215.574219 45.179688 216.1875 48.386719 215.964844 C 48.386719 199.28125 48.386719 182.589844 48.386719 165.675781 Z M 312.300781 234.800781 C 313.1875 235.066406 313.417969 235.15625 313.660156 235.203125 C 321.941406 236.730469 325.332031 234.019531 325.335938 225.800781 C 325.347656 200.207031 325.339844 174.609375 325.335938 149.015625 C 325.335938 148.144531 325.566406 147.160156 325.242188 146.429688 C 324.777344 145.394531 324.074219 144.066406 323.148438 143.714844 C 321.453125 143.078125 319.511719 142.773438 317.695312 142.851562 C 313.890625 143.007812 312.304688 144.882812 312.304688 148.695312 C 312.304688 176.03125 312.300781 203.363281 312.300781 230.695312 C 312.300781 232.035156 312.300781 233.371094 312.300781 234.800781 Z M 63.648438 235.304688 C 63.648438 233.347656 63.648438 232 63.648438 230.648438 C 63.648438 220.835938 63.648438 211.019531 63.648438 201.203125 C 63.648438 183.558594 63.660156 165.917969 63.621094 148.273438 C 63.617188 147.101562 63.570312 145.664062 62.933594 144.804688 C 61.289062 142.601562 56.300781 142.183594 52.78125 143.632812 C 50.160156 144.710938 50.671875 147.019531 50.667969 149.0625 C 50.640625 162.601562 50.640625 176.144531 50.660156 189.691406 C 50.675781 202.734375 50.683594 215.78125 50.773438 228.824219 C 50.800781 232.433594 52.566406 234.636719 56.140625 235.234375 C 58.40625 235.609375 60.789062 235.304688 63.648438 235.304688 Z M 120.890625 180.828125 C 120.890625 183.40625 120.890625 185.257812 120.890625 187.113281 C 120.890625 189.050781 120.890625 190.992188 120.890625 192.980469 C 165.929688 192.980469 210.445312 192.980469 254.941406 192.980469 C 254.941406 188.886719 254.941406 185.097656 254.941406 180.828125 C 210.265625 180.828125 165.847656 180.828125 120.890625 180.828125 Z M 310.21875 186.609375 C 310.21875 168.476562 310.214844 150.34375 310.21875 132.214844 C 310.222656 127.566406 308.570312 125.613281 303.945312 125.640625 C 301.535156 125.65625 299.085938 126.308594 296.730469 126.960938 C 293.914062 127.742188 292.898438 129.570312 292.914062 132.738281 C 293.050781 169 293.058594 205.265625 292.902344 241.527344 C 292.886719 245 294.328125 246.839844 297.011719 248.199219 C 300.527344 249.984375 303.902344 249.378906 307.335938 247.636719 C 310.460938 246.046875 310.234375 243.394531 310.230469 240.632812 C 310.207031 222.625 310.21875 204.617188 310.21875 186.609375 Z M 65.828125 186.320312 C 65.828125 194.519531 65.828125 202.714844 65.828125 210.914062 C 65.828125 221.347656 65.914062 231.785156 65.769531 242.214844 C 65.730469 244.976562 66.703125 246.726562 69.113281 247.800781 C 70.128906 248.253906 71.152344 248.753906 72.222656 249.011719 C 75.613281 249.816406 78.445312 248.679688 81.265625 246.722656 C 83.683594 245.042969 83.003906 242.816406 83.007812 240.714844 C 83.050781 212.023438 83.035156 183.328125 83.035156 154.636719 C 83.03125 147.183594 82.882812 139.726562 83.109375 132.277344 C 83.195312 129.582031 82.15625 128.289062 79.933594 127.191406 C 77.035156 125.761719 74.046875 125.257812 70.90625 125.65625 C 67.316406 126.109375 65.828125 127.910156 65.828125 131.539062 C 65.828125 149.800781 65.828125 168.0625 65.828125 186.320312 Z M 85.21875 188.832031 C 85.21875 211.683594 85.269531 234.539062 85.160156 257.394531 C 85.144531 260.511719 86.359375 262.585938 88.757812 264.246094 C 92.175781 266.59375 96.003906 267.605469 100.0625 267.152344 C 106.550781 266.433594 111.761719 264.414062 111.558594 255.246094 C 111.1875 238.113281 111.453125 220.96875 111.449219 203.824219 C 111.449219 176.25 111.417969 148.675781 111.484375 121.105469 C 111.492188 117.847656 110.765625 115.128906 107.785156 113.5625 C 102.671875 110.878906 97.234375 109.910156 91.578125 111.433594 C 87.367188 112.570312 85.214844 115.589844 85.214844 119.894531 C 85.210938 142.871094 85.214844 165.851562 85.21875 188.832031 Z M 290.867188 188.8125 C 290.867188 165.953125 290.867188 143.097656 290.867188 120.238281 C 290.867188 115.53125 288.660156 112.488281 284.078125 111.332031 C 278.667969 109.964844 273.460938 110.9375 268.546875 113.378906 C 265.601562 114.847656 264.460938 117.417969 264.464844 120.734375 C 264.5 165.703125 264.492188 210.664062 264.46875 255.632812 C 264.464844 262.628906 266.554688 265.195312 273.765625 266.875 C 277.222656 267.679688 280.675781 267.300781 284 265.984375 C 289.269531 263.898438 290.871094 261.554688 290.871094 255.890625 C 290.871094 233.53125 290.871094 211.171875 290.867188 188.8125 Z M 255.183594 195.449219 C 210.289062 195.449219 165.867188 195.449219 120.894531 195.449219 C 120.894531 198.554688 120.894531 201.488281 120.894531 204.421875 C 120.894531 206.53125 120.886719 208.644531 120.894531 210.757812 C 120.921875 216.796875 119.84375 218.09375 113.605469 219.171875 C 113.605469 220.441406 113.605469 221.78125 113.605469 223.121094 C 113.628906 234.925781 113.667969 246.726562 113.660156 258.53125 C 113.65625 262.054688 111.824219 264.621094 109.003906 266.511719 C 102.515625 270.867188 92.230469 270.214844 86.359375 265.0625 C 83.929688 262.929688 82.375 260.503906 82.929688 256.925781 C 83.339844 254.300781 83.011719 251.558594 83.011719 248.460938 C 81.265625 249.378906 80.039062 250.238281 78.675781 250.699219 C 73.601562 252.421875 69.078125 251.117188 65.257812 247.601562 C 64.324219 246.738281 63.867188 245.085938 63.683594 243.734375 C 63.421875 241.808594 63.617188 239.816406 63.617188 237.652344 C 61.746094 237.652344 60.171875 237.65625 58.601562 237.652344 C 51.785156 237.621094 48.355469 234.082031 48.519531 227.3125 C 48.585938 224.464844 48.53125 221.621094 48.53125 218.726562 C 39.074219 217.804688 39.832031 210.582031 39.332031 204.160156 C 38.285156 203.851562 37.355469 203.550781 36.40625 203.304688 C 33.695312 202.589844 31.917969 200.675781 31.707031 198.097656 C 31.390625 194.304688 31.417969 190.414062 31.90625 186.636719 C 32.410156 182.683594 35.363281 180.828125 39.648438 180.390625 C 39.648438 176.730469 39.511719 173.15625 39.691406 169.605469 C 39.875 165.949219 41.480469 164.007812 44.472656 163.398438 C 45.675781 163.15625 46.917969 163.117188 48.535156 162.941406 C 48.535156 157.804688 48.527344 152.621094 48.542969 147.4375 C 48.554688 143.386719 49.476562 141.914062 53.476562 141.363281 C 56.691406 140.917969 60.015625 141.273438 63.628906 141.273438 C 63.628906 138.183594 63.695312 134.722656 63.609375 131.265625 C 63.515625 127.339844 64.789062 125.304688 68.511719 124.054688 C 72.34375 122.769531 76.105469 123.246094 79.773438 124.765625 C 80.679688 125.140625 81.554688 125.574219 82.945312 126.203125 C 82.945312 124.542969 83.085938 123.226562 82.921875 121.957031 C 82.113281 115.832031 85.578125 110.578125 91.570312 109.1875 C 97.09375 107.90625 102.488281 108.707031 107.566406 111.019531 C 111.558594 112.839844 113.765625 115.867188 113.679688 120.683594 C 113.460938 132.730469 113.605469 144.78125 113.605469 156.835938 C 113.605469 158.050781 113.605469 159.273438 113.605469 160.605469 C 114.496094 160.605469 115.09375 160.5625 115.683594 160.613281 C 119.351562 160.925781 120.984375 162.746094 120.960938 166.394531 C 120.9375 170.46875 120.957031 174.542969 120.957031 178.417969 C 165.707031 178.417969 210.144531 178.417969 255.191406 178.417969 C 255.191406 175.078125 255.230469 171.40625 255.179688 167.738281 C 255.101562 162.070312 256.167969 160.890625 262.449219 160.441406 C 262.449219 159.164062 262.449219 157.847656 262.449219 156.53125 C 262.449219 144.480469 262.570312 132.425781 262.378906 120.378906 C 262.308594 116.054688 264.207031 113.1875 267.753906 111.398438 C 273.117188 108.695312 278.859375 107.835938 284.757812 109.269531 C 290.414062 110.644531 293.875 115.863281 293.191406 121.585938 C 293.089844 122.445312 293.035156 123.316406 293.027344 124.179688 C 293.019531 124.65625 293.144531 125.140625 293.242188 125.839844 C 295.574219 125.070312 297.710938 124.140625 299.941406 123.675781 C 303.707031 122.890625 307.347656 123.214844 310.503906 125.816406 C 312.0625 127.101562 312.691406 128.519531 312.527344 130.65625 C 312.253906 134.214844 312.453125 137.808594 312.453125 141.0625 C 316.007812 141.148438 319.40625 140.917969 322.707031 141.382812 C 326.398438 141.90625 327.488281 143.554688 327.523438 147.230469 C 327.566406 152.320312 327.582031 157.410156 327.617188 162.507812 C 327.617188 162.617188 327.71875 162.722656 327.84375 162.960938 C 328.082031 163.019531 328.410156 163.160156 328.742188 163.171875 C 334.273438 163.324219 336.308594 165.292969 336.476562 170.863281 C 336.570312 173.945312 336.492188 177.035156 336.492188 179.535156 C 338.894531 181.035156 341.445312 181.824219 342.605469 183.546875 C 343.957031 185.566406 344.164062 188.386719 344.730469 190.886719 C 344.945312 191.835938 344.808594 192.863281 344.792969 193.859375 C 344.703125 200.578125 343.398438 202.269531 336.773438 204.132812 C 336.179688 210.359375 337.035156 217.625 327.546875 218.722656 C 327.546875 221.878906 327.507812 225.078125 327.558594 228.277344 C 327.640625 233.3125 324.5 237.011719 319.410156 237.515625 C 317.222656 237.734375 314.996094 237.550781 312.351562 237.550781 C 312.351562 239.699219 312.144531 241.671875 312.40625 243.578125 C 312.6875 245.617188 311.800781 246.882812 310.402344 248.0625 C 305.726562 252.015625 300.214844 252.488281 294.871094 249.390625 C 294.460938 249.152344 294.027344 248.957031 293.019531 248.441406 C 293.019531 251.539062 292.6875 254.253906 293.101562 256.847656 C 293.613281 260.085938 292.386719 262.414062 290.28125 264.503906 C 284.476562 270.273438 272.96875 271.109375 266.492188 266.128906 C 263.625 263.921875 262.234375 261.136719 262.328125 257.171875 C 262.613281 244.878906 262.429688 232.574219 262.410156 220.277344 C 262.410156 219.921875 262.253906 219.566406 262.125 219.03125 C 261.5625 218.953125 260.972656 218.886719 260.394531 218.78125 C 256.671875 218.105469 255.199219 216.300781 255.1875 212.34375 C 255.171875 206.898438 255.183594 201.449219 255.183594 195.449219 " fill-opacity="1" fill-rule="nonzero"/></g><g clip-path="url(#3fb8b0441d)"><path fill="#734a40" d="M 335.53125 183.816406 C 335.53125 189.945312 335.53125 196.078125 335.53125 202.277344 C 338.703125 202.191406 340.632812 200.785156 340.851562 198.167969 C 341.136719 194.761719 341.097656 191.257812 340.636719 187.875 C 340.226562 184.894531 338.738281 184.054688 335.53125 183.816406 Z M 37.847656 202.238281 C 37.847656 195.921875 37.847656 189.847656 37.847656 183.671875 C 34.730469 183.574219 32.9375 185.152344 32.601562 187.660156 C 32.148438 191.046875 32.042969 194.542969 32.335938 197.941406 C 32.59375 200.953125 33.8125 201.65625 37.847656 202.238281 Z M 112.195312 190.429688 C 112.195312 198.378906 112.1875 206.320312 112.199219 214.269531 C 112.203125 215.613281 111.980469 217.21875 114.003906 217.292969 C 115.75 217.359375 116.773438 216.304688 117.121094 214.671875 C 117.296875 213.832031 117.285156 212.941406 117.289062 212.074219 C 117.296875 197.300781 117.296875 182.527344 117.292969 167.75 C 117.292969 167.007812 117.523438 166.0625 117.160156 165.566406 C 116.566406 164.757812 115.585938 163.753906 114.75 163.738281 C 113.949219 163.71875 112.839844 164.699219 112.394531 165.523438 C 111.972656 166.3125 112.199219 167.460938 112.195312 168.453125 C 112.1875 175.777344 112.191406 183.101562 112.195312 190.429688 Z M 261.027344 190.882812 C 261.03125 190.882812 261.035156 190.882812 261.035156 190.882812 C 261.035156 186.167969 261.035156 181.449219 261.035156 176.730469 C 261.035156 173.628906 261.027344 170.523438 261.027344 167.421875 C 261.027344 165.597656 260.917969 163.660156 258.527344 163.644531 C 256.226562 163.628906 255.769531 165.328125 255.960938 167.296875 C 256.007812 167.789062 255.96875 168.289062 255.96875 168.785156 C 255.96875 175.738281 255.960938 182.691406 255.964844 189.640625 C 255.96875 197.585938 255.9375 205.53125 256.015625 213.476562 C 256.042969 216.015625 257.277344 217.417969 259.113281 217.289062 C 261.667969 217.113281 260.988281 215.066406 261 213.601562 C 261.058594 206.027344 261.027344 198.457031 261.027344 190.882812 Z M 326.253906 217.058594 C 330.710938 216.519531 332.703125 214.664062 332.765625 210.152344 C 332.9375 197.019531 332.925781 183.882812 332.789062 170.75 C 332.746094 166.625 330.425781 165.359375 326.253906 166.675781 C 326.253906 183.371094 326.253906 200.078125 326.253906 217.058594 Z M 46.972656 166.425781 C 42.121094 165.679688 40.464844 166.75 40.398438 171.179688 C 40.210938 183.4375 40.210938 195.699219 40.261719 207.960938 C 40.265625 209.898438 40.679688 211.925781 41.355469 213.746094 C 42.316406 216.324219 43.765625 216.9375 46.972656 216.714844 C 46.972656 200.03125 46.972656 183.339844 46.972656 166.425781 Z M 310.886719 235.550781 C 311.769531 235.816406 312.003906 235.90625 312.246094 235.953125 C 320.527344 237.480469 323.917969 234.769531 323.917969 226.550781 C 323.929688 200.957031 323.925781 175.359375 323.921875 149.765625 C 323.921875 148.894531 324.152344 147.910156 323.824219 147.179688 C 323.359375 146.144531 322.65625 144.816406 321.734375 144.464844 C 320.039062 143.828125 318.097656 143.523438 316.277344 143.601562 C 312.476562 143.757812 310.890625 145.632812 310.890625 149.445312 C 310.886719 176.78125 310.886719 204.113281 310.886719 231.445312 C 310.886719 232.785156 310.886719 234.121094 310.886719 235.550781 Z M 62.230469 236.054688 C 62.230469 234.097656 62.230469 232.75 62.230469 231.398438 C 62.230469 221.585938 62.230469 211.769531 62.230469 201.953125 C 62.230469 184.308594 62.242188 166.667969 62.207031 149.023438 C 62.203125 147.851562 62.15625 146.414062 61.519531 145.554688 C 59.871094 143.351562 54.886719 142.933594 51.363281 144.382812 C 48.746094 145.460938 49.257812 147.769531 49.253906 149.8125 C 49.222656 163.351562 49.226562 176.894531 49.246094 190.441406 C 49.257812 203.484375 49.269531 216.53125 49.359375 229.574219 C 49.382812 233.183594 51.148438 235.386719 54.726562 235.984375 C 56.992188 236.359375 59.375 236.054688 62.230469 236.054688 Z M 119.476562 181.578125 C 119.476562 184.15625 119.476562 186.007812 119.476562 187.863281 C 119.476562 189.800781 119.476562 191.742188 119.476562 193.730469 C 164.515625 193.730469 209.03125 193.730469 253.523438 193.730469 C 253.523438 189.636719 253.523438 185.847656 253.523438 181.578125 C 208.847656 181.578125 164.429688 181.578125 119.476562 181.578125 Z M 308.800781 187.359375 C 308.800781 169.226562 308.800781 151.09375 308.804688 132.964844 C 308.808594 128.316406 307.15625 126.363281 302.53125 126.390625 C 300.121094 126.40625 297.671875 127.058594 295.316406 127.710938 C 292.496094 128.492188 291.484375 130.320312 291.496094 133.488281 C 291.636719 169.75 291.644531 206.015625 291.484375 242.277344 C 291.472656 245.75 292.914062 247.589844 295.597656 248.949219 C 299.113281 250.734375 302.488281 250.128906 305.917969 248.386719 C 309.042969 246.796875 308.820312 244.144531 308.816406 241.382812 C 308.789062 223.375 308.800781 205.367188 308.800781 187.359375 Z M 64.410156 187.070312 C 64.410156 195.269531 64.410156 203.464844 64.410156 211.664062 C 64.410156 222.097656 64.5 232.535156 64.355469 242.964844 C 64.316406 245.726562 65.289062 247.476562 67.699219 248.550781 C 68.714844 249.003906 69.734375 249.503906 70.808594 249.761719 C 74.199219 250.566406 77.03125 249.429688 79.847656 247.472656 C 82.269531 245.792969 81.589844 243.566406 81.59375 241.464844 C 81.632812 212.773438 81.621094 184.078125 81.621094 155.386719 C 81.617188 147.933594 81.46875 140.476562 81.695312 133.027344 C 81.78125 130.332031 80.742188 129.039062 78.515625 127.941406 C 75.617188 126.511719 72.628906 126.007812 69.492188 126.40625 C 65.898438 126.859375 64.410156 128.660156 64.410156 132.289062 C 64.410156 150.550781 64.410156 168.8125 64.410156 187.070312 Z M 83.804688 189.582031 C 83.804688 212.433594 83.851562 235.289062 83.746094 258.144531 C 83.730469 261.261719 84.941406 263.335938 87.34375 264.996094 C 90.757812 267.34375 94.585938 268.355469 98.648438 267.902344 C 105.136719 267.183594 110.34375 265.164062 110.144531 255.996094 C 109.773438 238.863281 110.039062 221.71875 110.035156 204.574219 C 110.03125 177 110 149.425781 110.066406 121.855469 C 110.078125 118.597656 109.351562 115.878906 106.367188 114.3125 C 101.257812 111.628906 95.820312 110.660156 90.164062 112.183594 C 85.949219 113.320312 83.800781 116.339844 83.800781 120.644531 C 83.796875 143.621094 83.796875 166.601562 83.804688 189.582031 Z M 289.449219 189.5625 C 289.449219 166.703125 289.449219 143.847656 289.453125 120.988281 C 289.453125 116.28125 287.246094 113.238281 282.664062 112.082031 C 277.25 110.714844 272.046875 111.6875 267.132812 114.128906 C 264.183594 115.597656 263.046875 118.167969 263.050781 121.484375 C 263.085938 166.453125 263.074219 211.414062 263.050781 256.382812 C 263.050781 263.378906 265.140625 265.945312 272.351562 267.625 C 275.808594 268.429688 279.261719 268.050781 282.585938 266.734375 C 287.855469 264.648438 289.457031 262.304688 289.457031 256.640625 C 289.457031 234.28125 289.457031 211.921875 289.449219 189.5625 Z M 253.769531 196.199219 C 208.871094 196.199219 164.449219 196.199219 119.480469 196.199219 C 119.480469 199.304688 119.480469 202.238281 119.480469 205.171875 C 119.480469 207.28125 119.46875 209.394531 119.480469 211.507812 C 119.503906 217.546875 118.429688 218.84375 112.191406 219.921875 C 112.191406 221.191406 112.191406 222.53125 112.191406 223.871094 C 112.214844 235.675781 112.253906 247.476562 112.242188 259.28125 C 112.242188 262.804688 110.410156 265.371094 107.589844 267.261719 C 101.097656 271.617188 90.816406 270.964844 84.941406 265.8125 C 82.511719 263.679688 80.957031 261.253906 81.515625 257.675781 C 81.925781 255.050781 81.597656 252.308594 81.597656 249.210938 C 79.847656 250.128906 78.621094 250.988281 77.261719 251.449219 C 72.1875 253.171875 67.664062 251.867188 63.84375 248.351562 C 62.90625 247.488281 62.453125 245.835938 62.269531 244.484375 C 62.007812 242.558594 62.203125 240.566406 62.203125 238.402344 C 60.332031 238.402344 58.757812 238.40625 57.183594 238.402344 C 50.367188 238.371094 46.941406 234.832031 47.105469 228.0625 C 47.171875 225.214844 47.117188 222.371094 47.117188 219.476562 C 37.660156 218.554688 38.414062 211.332031 37.917969 204.910156 C 36.871094 204.601562 35.9375 204.300781 34.992188 204.054688 C 32.28125 203.339844 30.503906 201.425781 30.292969 198.847656 C 29.976562 195.054688 30.003906 191.164062 30.488281 187.386719 C 30.996094 183.433594 33.945312 181.578125 38.234375 181.140625 C 38.234375 177.480469 38.09375 173.90625 38.273438 170.355469 C 38.457031 166.699219 40.066406 164.757812 43.058594 164.148438 C 44.261719 163.90625 45.503906 163.867188 47.121094 163.691406 C 47.121094 158.554688 47.113281 153.371094 47.128906 148.1875 C 47.136719 144.136719 48.0625 142.664062 52.0625 142.113281 C 55.277344 141.667969 58.601562 142.023438 62.210938 142.023438 C 62.210938 138.933594 62.277344 135.472656 62.195312 132.015625 C 62.101562 128.089844 63.375 126.054688 67.097656 124.804688 C 70.929688 123.519531 74.691406 123.996094 78.359375 125.515625 C 79.261719 125.890625 80.140625 126.324219 81.527344 126.953125 C 81.527344 125.292969 81.671875 123.976562 81.503906 122.707031 C 80.695312 116.582031 84.164062 111.328125 90.152344 109.9375 C 95.679688 108.65625 101.074219 109.457031 106.148438 111.769531 C 110.144531 113.589844 112.351562 116.617188 112.265625 121.433594 C 112.046875 133.480469 112.191406 145.53125 112.191406 157.585938 C 112.191406 158.800781 112.191406 160.023438 112.191406 161.355469 C 113.082031 161.355469 113.679688 161.3125 114.269531 161.363281 C 117.933594 161.675781 119.570312 163.496094 119.546875 167.144531 C 119.523438 171.21875 119.542969 175.292969 119.542969 179.167969 C 164.289062 179.167969 208.726562 179.167969 253.773438 179.167969 C 253.773438 175.828125 253.816406 172.15625 253.761719 168.488281 C 253.683594 162.820312 254.753906 161.640625 261.035156 161.191406 C 261.035156 159.914062 261.035156 158.597656 261.035156 157.28125 C 261.035156 145.230469 261.152344 133.175781 260.964844 121.128906 C 260.894531 116.804688 262.789062 113.9375 266.335938 112.148438 C 271.699219 109.445312 277.445312 108.585938 283.34375 110.019531 C 289 111.394531 292.460938 116.613281 291.773438 122.335938 C 291.671875 123.195312 291.621094 124.066406 291.613281 124.929688 C 291.605469 125.40625 291.730469 125.890625 291.828125 126.589844 C 294.15625 125.820312 296.296875 124.890625 298.527344 124.425781 C 302.292969 123.640625 305.929688 123.964844 309.085938 126.566406 C 310.648438 127.851562 311.273438 129.269531 311.113281 131.40625 C 310.839844 134.964844 311.035156 138.558594 311.035156 141.8125 C 314.59375 141.898438 317.992188 141.667969 321.292969 142.132812 C 324.984375 142.65625 326.074219 144.304688 326.105469 147.980469 C 326.152344 153.070312 326.164062 158.160156 326.199219 163.257812 C 326.199219 163.367188 326.304688 163.472656 326.425781 163.710938 C 326.664062 163.769531 326.996094 163.910156 327.328125 163.921875 C 332.859375 164.074219 334.894531 166.042969 335.058594 171.613281 C 335.152344 174.695312 335.078125 177.785156 335.078125 180.285156 C 337.480469 181.785156 340.03125 182.574219 341.1875 184.296875 C 342.539062 186.316406 342.746094 189.136719 343.316406 191.636719 C 343.53125 192.585938 343.394531 193.613281 343.378906 194.609375 C 343.289062 201.328125 341.984375 203.019531 335.359375 204.882812 C 334.761719 211.109375 335.621094 218.375 326.132812 219.472656 C 326.132812 222.628906 326.09375 225.828125 326.144531 229.027344 C 326.226562 234.0625 323.082031 237.761719 317.996094 238.265625 C 315.808594 238.484375 313.582031 238.300781 310.9375 238.300781 C 310.9375 240.449219 310.730469 242.421875 310.992188 244.328125 C 311.273438 246.367188 310.382812 247.632812 308.988281 248.8125 C 304.3125 252.765625 298.800781 253.238281 293.457031 250.140625 C 293.046875 249.902344 292.613281 249.707031 291.601562 249.191406 C 291.601562 252.289062 291.273438 255.003906 291.6875 257.597656 C 292.199219 260.835938 290.96875 263.164062 288.867188 265.253906 C 283.0625 271.023438 271.550781 271.859375 265.078125 266.878906 C 262.210938 264.671875 260.816406 261.886719 260.910156 257.921875 C 261.199219 245.628906 261.011719 233.324219 260.996094 221.027344 C 260.996094 220.671875 260.839844 220.316406 260.710938 219.78125 C 260.148438 219.703125 259.558594 219.636719 258.976562 219.53125 C 255.253906 218.855469 253.785156 217.050781 253.773438 213.09375 C 253.757812 207.648438 253.769531 202.199219 253.769531 196.199219 " fill-opacity="1" fill-rule="nonzero"/></g><g clip-path="url(#2b96200c33)"><path fill="#734a40" d="M 336.949219 180.066406 C 336.949219 186.195312 336.949219 192.328125 336.949219 198.527344 C 340.117188 198.441406 342.046875 197.035156 342.265625 194.417969 C 342.550781 191.011719 342.515625 187.507812 342.050781 184.125 C 341.644531 181.144531 340.15625 180.304688 336.949219 180.066406 Z M 39.261719 198.488281 C 39.261719 192.171875 39.261719 186.097656 39.261719 179.921875 C 36.144531 179.824219 34.351562 181.402344 34.015625 183.910156 C 33.566406 187.296875 33.457031 190.792969 33.75 194.191406 C 34.011719 197.203125 35.226562 197.90625 39.261719 198.488281 Z M 113.609375 186.679688 C 113.609375 194.628906 113.605469 202.570312 113.617188 210.519531 C 113.617188 211.863281 113.394531 213.46875 115.421875 213.542969 C 117.164062 213.609375 118.1875 212.554688 118.535156 210.921875 C 118.710938 210.082031 118.699219 209.191406 118.703125 208.324219 C 118.710938 193.550781 118.710938 178.777344 118.710938 164 C 118.710938 163.257812 118.941406 162.3125 118.574219 161.816406 C 117.980469 161.007812 117 160.003906 116.164062 159.988281 C 115.367188 159.96875 114.257812 160.949219 113.808594 161.773438 C 113.386719 162.5625 113.617188 163.710938 113.613281 164.703125 C 113.605469 172.027344 113.605469 179.351562 113.609375 186.679688 Z M 262.441406 187.132812 C 262.445312 187.132812 262.449219 187.132812 262.453125 187.132812 C 262.453125 182.417969 262.453125 177.699219 262.453125 172.980469 C 262.449219 169.878906 262.441406 166.773438 262.441406 163.671875 C 262.441406 161.847656 262.332031 159.910156 259.941406 159.894531 C 257.644531 159.878906 257.183594 161.578125 257.378906 163.546875 C 257.425781 164.039062 257.382812 164.539062 257.382812 165.035156 C 257.382812 171.988281 257.378906 178.941406 257.382812 185.890625 C 257.382812 193.835938 257.351562 201.78125 257.429688 209.726562 C 257.460938 212.265625 258.691406 213.667969 260.53125 213.539062 C 263.085938 213.363281 262.40625 211.316406 262.417969 209.851562 C 262.476562 202.277344 262.441406 194.707031 262.441406 187.132812 Z M 327.671875 213.308594 C 332.128906 212.769531 334.121094 210.914062 334.179688 206.402344 C 334.351562 193.269531 334.339844 180.132812 334.203125 167 C 334.160156 162.875 331.839844 161.609375 327.671875 162.925781 C 327.671875 179.621094 327.671875 196.328125 327.671875 213.308594 Z M 48.386719 162.675781 C 43.535156 161.929688 41.882812 163 41.8125 167.429688 C 41.625 179.6875 41.625 191.949219 41.675781 204.210938 C 41.683594 206.148438 42.09375 208.175781 42.769531 209.996094 C 43.730469 212.574219 45.179688 213.1875 48.386719 212.964844 C 48.386719 196.28125 48.386719 179.589844 48.386719 162.675781 Z M 312.300781 231.800781 C 313.1875 232.066406 313.417969 232.15625 313.660156 232.203125 C 321.941406 233.730469 325.332031 231.019531 325.335938 222.800781 C 325.347656 197.207031 325.339844 171.609375 325.335938 146.015625 C 325.335938 145.144531 325.566406 144.160156 325.242188 143.429688 C 324.777344 142.394531 324.074219 141.066406 323.148438 140.714844 C 321.453125 140.078125 319.511719 139.773438 317.695312 139.851562 C 313.890625 140.007812 312.304688 141.882812 312.304688 145.695312 C 312.304688 173.03125 312.300781 200.363281 312.300781 227.695312 C 312.300781 229.035156 312.300781 230.371094 312.300781 231.800781 Z M 63.648438 232.304688 C 63.648438 230.347656 63.648438 229 63.648438 227.648438 C 63.648438 217.835938 63.648438 208.019531 63.648438 198.203125 C 63.648438 180.558594 63.660156 162.917969 63.621094 145.273438 C 63.617188 144.101562 63.570312 142.664062 62.933594 141.804688 C 61.289062 139.601562 56.300781 139.183594 52.78125 140.632812 C 50.160156 141.710938 50.671875 144.019531 50.667969 146.0625 C 50.640625 159.601562 50.640625 173.144531 50.660156 186.691406 C 50.675781 199.734375 50.683594 212.78125 50.773438 225.824219 C 50.800781 229.433594 52.566406 231.636719 56.140625 232.234375 C 58.40625 232.609375 60.789062 232.304688 63.648438 232.304688 Z M 120.890625 177.828125 C 120.890625 180.40625 120.890625 182.257812 120.890625 184.113281 C 120.890625 186.050781 120.890625 187.992188 120.890625 189.980469 C 165.929688 189.980469 210.445312 189.980469 254.941406 189.980469 C 254.941406 185.886719 254.941406 182.097656 254.941406 177.828125 C 210.265625 177.828125 165.847656 177.828125 120.890625 177.828125 Z M 310.21875 183.609375 C 310.21875 165.476562 310.214844 147.34375 310.21875 129.214844 C 310.222656 124.566406 308.570312 122.613281 303.945312 122.640625 C 301.535156 122.65625 299.085938 123.308594 296.730469 123.960938 C 293.914062 124.742188 292.898438 126.570312 292.914062 129.738281 C 293.050781 166 293.058594 202.265625 292.902344 238.527344 C 292.886719 242 294.328125 243.839844 297.011719 245.199219 C 300.527344 246.984375 303.902344 246.378906 307.335938 244.636719 C 310.460938 243.046875 310.234375 240.394531 310.230469 237.632812 C 310.207031 219.625 310.21875 201.617188 310.21875 183.609375 Z M 65.828125 183.320312 C 65.828125 191.519531 65.828125 199.714844 65.828125 207.914062 C 65.828125 218.347656 65.914062 228.785156 65.769531 239.214844 C 65.730469 241.976562 66.703125 243.726562 69.113281 244.800781 C 70.128906 245.253906 71.152344 245.753906 72.222656 246.011719 C 75.613281 246.816406 78.445312 245.679688 81.265625 243.722656 C 83.683594 242.042969 83.003906 239.816406 83.007812 237.714844 C 83.050781 209.023438 83.035156 180.328125 83.035156 151.636719 C 83.03125 144.183594 82.882812 136.726562 83.109375 129.277344 C 83.195312 126.582031 82.15625 125.289062 79.933594 124.191406 C 77.035156 122.761719 74.046875 122.257812 70.90625 122.65625 C 67.316406 123.109375 65.828125 124.910156 65.828125 128.539062 C 65.828125 146.800781 65.828125 165.0625 65.828125 183.320312 Z M 85.21875 185.832031 C 85.21875 208.683594 85.269531 231.539062 85.160156 254.394531 C 85.144531 257.511719 86.359375 259.585938 88.757812 261.246094 C 92.175781 263.59375 96.003906 264.605469 100.0625 264.152344 C 106.550781 263.433594 111.761719 261.414062 111.558594 252.246094 C 111.1875 235.113281 111.453125 217.96875 111.449219 200.824219 C 111.449219 173.25 111.417969 145.675781 111.484375 118.105469 C 111.492188 114.847656 110.765625 112.128906 107.785156 110.5625 C 102.671875 107.878906 97.234375 106.910156 91.578125 108.433594 C 87.367188 109.570312 85.214844 112.589844 85.214844 116.894531 C 85.210938 139.871094 85.214844 162.851562 85.21875 185.832031 Z M 290.867188 185.8125 C 290.867188 162.953125 290.867188 140.097656 290.867188 117.238281 C 290.867188 112.53125 288.660156 109.488281 284.078125 108.332031 C 278.667969 106.964844 273.460938 107.9375 268.546875 110.378906 C 265.601562 111.847656 264.460938 114.417969 264.464844 117.734375 C 264.5 162.703125 264.492188 207.664062 264.46875 252.632812 C 264.464844 259.628906 266.554688 262.195312 273.765625 263.875 C 277.222656 264.679688 280.675781 264.300781 284 262.984375 C 289.269531 260.898438 290.871094 258.554688 290.871094 252.890625 C 290.871094 230.53125 290.871094 208.171875 290.867188 185.8125 Z M 255.183594 192.449219 C 210.289062 192.449219 165.867188 192.449219 120.894531 192.449219 C 120.894531 195.554688 120.894531 198.488281 120.894531 201.421875 C 120.894531 203.53125 120.886719 205.644531 120.894531 207.757812 C 120.921875 213.796875 119.84375 215.09375 113.605469 216.171875 C 113.605469 217.441406 113.605469 218.78125 113.605469 220.121094 C 113.628906 231.925781 113.667969 243.726562 113.660156 255.53125 C 113.65625 259.054688 111.824219 261.621094 109.003906 263.511719 C 102.515625 267.867188 92.230469 267.214844 86.359375 262.0625 C 83.929688 259.929688 82.375 257.503906 82.929688 253.925781 C 83.339844 251.300781 83.011719 248.558594 83.011719 245.460938 C 81.265625 246.378906 80.039062 247.238281 78.675781 247.699219 C 73.601562 249.421875 69.078125 248.117188 65.257812 244.601562 C 64.324219 243.738281 63.867188 242.085938 63.683594 240.734375 C 63.421875 238.808594 63.617188 236.816406 63.617188 234.652344 C 61.746094 234.652344 60.171875 234.65625 58.601562 234.652344 C 51.785156 234.621094 48.355469 231.082031 48.519531 224.3125 C 48.585938 221.464844 48.53125 218.621094 48.53125 215.726562 C 39.074219 214.804688 39.832031 207.582031 39.332031 201.160156 C 38.285156 200.851562 37.355469 200.550781 36.40625 200.304688 C 33.695312 199.589844 31.917969 197.675781 31.707031 195.097656 C 31.390625 191.304688 31.417969 187.414062 31.90625 183.636719 C 32.410156 179.683594 35.363281 177.828125 39.648438 177.390625 C 39.648438 173.730469 39.511719 170.15625 39.691406 166.605469 C 39.875 162.949219 41.480469 161.007812 44.472656 160.398438 C 45.675781 160.15625 46.917969 160.117188 48.535156 159.941406 C 48.535156 154.804688 48.527344 149.621094 48.542969 144.4375 C 48.554688 140.386719 49.476562 138.914062 53.476562 138.363281 C 56.691406 137.917969 60.015625 138.273438 63.628906 138.273438 C 63.628906 135.183594 63.695312 131.722656 63.609375 128.265625 C 63.515625 124.339844 64.789062 122.304688 68.511719 121.054688 C 72.34375 119.769531 76.105469 120.246094 79.773438 121.765625 C 80.679688 122.140625 81.554688 122.574219 82.945312 123.203125 C 82.945312 121.542969 83.085938 120.226562 82.921875 118.957031 C 82.113281 112.832031 85.578125 107.578125 91.570312 106.1875 C 97.09375 104.90625 102.488281 105.707031 107.566406 108.019531 C 111.558594 109.839844 113.765625 112.867188 113.679688 117.683594 C 113.460938 129.730469 113.605469 141.78125 113.605469 153.835938 C 113.605469 155.050781 113.605469 156.273438 113.605469 157.605469 C 114.496094 157.605469 115.09375 157.5625 115.683594 157.613281 C 119.351562 157.925781 120.984375 159.746094 120.960938 163.394531 C 120.9375 167.46875 120.957031 171.542969 120.957031 175.417969 C 165.707031 175.417969 210.144531 175.417969 255.191406 175.417969 C 255.191406 172.078125 255.230469 168.40625 255.179688 164.738281 C 255.101562 159.070312 256.167969 157.890625 262.449219 157.441406 C 262.449219 156.164062 262.449219 154.847656 262.449219 153.53125 C 262.449219 141.480469 262.570312 129.425781 262.378906 117.378906 C 262.308594 113.054688 264.207031 110.1875 267.753906 108.398438 C 273.117188 105.695312 278.859375 104.835938 284.757812 106.269531 C 290.414062 107.644531 293.875 112.863281 293.191406 118.585938 C 293.089844 119.445312 293.035156 120.316406 293.027344 121.179688 C 293.019531 121.65625 293.144531 122.140625 293.242188 122.839844 C 295.574219 122.070312 297.710938 121.140625 299.941406 120.675781 C 303.707031 119.890625 307.347656 120.214844 310.503906 122.816406 C 312.0625 124.101562 312.691406 125.519531 312.527344 127.65625 C 312.253906 131.214844 312.453125 134.808594 312.453125 138.0625 C 316.007812 138.148438 319.40625 137.917969 322.707031 138.382812 C 326.398438 138.90625 327.488281 140.554688 327.523438 144.230469 C 327.566406 149.320312 327.582031 154.410156 327.617188 159.507812 C 327.617188 159.617188 327.71875 159.722656 327.84375 159.960938 C 328.082031 160.019531 328.410156 160.160156 328.742188 160.171875 C 334.273438 160.324219 336.308594 162.292969 336.476562 167.863281 C 336.570312 170.945312 336.492188 174.035156 336.492188 176.535156 C 338.894531 178.035156 341.445312 178.824219 342.605469 180.546875 C 343.957031 182.566406 344.164062 185.386719 344.730469 187.886719 C 344.945312 188.835938 344.808594 189.863281 344.792969 190.859375 C 344.703125 197.578125 343.398438 199.269531 336.773438 201.132812 C 336.179688 207.359375 337.035156 214.625 327.546875 215.722656 C 327.546875 218.878906 327.507812 222.078125 327.558594 225.277344 C 327.640625 230.3125 324.5 234.011719 319.410156 234.515625 C 317.222656 234.734375 314.996094 234.550781 312.351562 234.550781 C 312.351562 236.699219 312.144531 238.671875 312.40625 240.578125 C 312.6875 242.617188 311.800781 243.882812 310.402344 245.0625 C 305.726562 249.015625 300.214844 249.488281 294.871094 246.390625 C 294.460938 246.152344 294.027344 245.957031 293.019531 245.441406 C 293.019531 248.539062 292.6875 251.253906 293.101562 253.847656 C 293.613281 257.085938 292.386719 259.414062 290.28125 261.503906 C 284.476562 267.273438 272.96875 268.109375 266.492188 263.128906 C 263.625 260.921875 262.234375 258.136719 262.328125 254.171875 C 262.613281 241.878906 262.429688 229.574219 262.410156 217.277344 C 262.410156 216.921875 262.253906 216.566406 262.125 216.03125 C 261.5625 215.953125 260.972656 215.886719 260.394531 215.78125 C 256.671875 215.105469 255.199219 213.300781 255.1875 209.34375 C 255.171875 203.898438 255.183594 198.449219 255.183594 192.449219 " fill-opacity="1" fill-rule="nonzero"/></g><g clip-path="url(#179cec79c0)"><path fill="#734a40" d="M 338.449219 183.066406 C 338.449219 189.195312 338.449219 195.328125 338.449219 201.527344 C 341.617188 201.441406 343.546875 200.035156 343.765625 197.417969 C 344.050781 194.011719 344.015625 190.507812 343.550781 187.125 C 343.144531 184.144531 341.65625 183.304688 338.449219 183.066406 Z M 40.761719 201.488281 C 40.761719 195.171875 40.761719 189.097656 40.761719 182.921875 C 37.644531 182.824219 35.851562 184.402344 35.515625 186.910156 C 35.066406 190.296875 34.957031 193.792969 35.25 197.191406 C 35.511719 200.203125 36.726562 200.90625 40.761719 201.488281 Z M 115.109375 189.679688 C 115.109375 197.628906 115.105469 205.570312 115.117188 213.519531 C 115.117188 214.863281 114.894531 216.46875 116.921875 216.542969 C 118.664062 216.609375 119.6875 215.554688 120.035156 213.921875 C 120.210938 213.082031 120.199219 212.191406 120.203125 211.324219 C 120.210938 196.550781 120.210938 181.777344 120.210938 167 C 120.210938 166.257812 120.441406 165.3125 120.074219 164.816406 C 119.480469 164.007812 118.5 163.003906 117.664062 162.988281 C 116.867188 162.96875 115.757812 163.949219 115.308594 164.773438 C 114.886719 165.5625 115.117188 166.710938 115.113281 167.703125 C 115.105469 175.027344 115.105469 182.351562 115.109375 189.679688 Z M 263.941406 190.132812 C 263.945312 190.132812 263.949219 190.132812 263.953125 190.132812 C 263.953125 185.417969 263.953125 180.699219 263.953125 175.980469 C 263.949219 172.878906 263.941406 169.773438 263.941406 166.671875 C 263.941406 164.847656 263.832031 162.910156 261.441406 162.894531 C 259.144531 162.878906 258.683594 164.578125 258.878906 166.546875 C 258.925781 167.039062 258.882812 167.539062 258.882812 168.035156 C 258.882812 174.988281 258.878906 181.941406 258.882812 188.890625 C 258.882812 196.835938 258.851562 204.78125 258.929688 212.726562 C 258.960938 215.265625 260.191406 216.667969 262.03125 216.539062 C 264.585938 216.363281 263.90625 214.316406 263.917969 212.851562 C 263.976562 205.277344 263.941406 197.707031 263.941406 190.132812 Z M 329.171875 216.308594 C 333.628906 215.769531 335.621094 213.914062 335.679688 209.402344 C 335.851562 196.269531 335.839844 183.132812 335.703125 170 C 335.660156 165.875 333.339844 164.609375 329.171875 165.925781 C 329.171875 182.621094 329.171875 199.328125 329.171875 216.308594 Z M 49.886719 165.675781 C 45.035156 164.929688 43.382812 166 43.3125 170.429688 C 43.125 182.6875 43.125 194.949219 43.175781 207.210938 C 43.183594 209.148438 43.59375 211.175781 44.269531 212.996094 C 45.230469 215.574219 46.679688 216.1875 49.886719 215.964844 C 49.886719 199.28125 49.886719 182.589844 49.886719 165.675781 Z M 313.800781 234.800781 C 314.6875 235.066406 314.917969 235.15625 315.160156 235.203125 C 323.441406 236.730469 326.832031 234.019531 326.835938 225.800781 C 326.847656 200.207031 326.839844 174.609375 326.835938 149.015625 C 326.835938 148.144531 327.066406 147.160156 326.742188 146.429688 C 326.277344 145.394531 325.574219 144.066406 324.648438 143.714844 C 322.953125 143.078125 321.011719 142.773438 319.195312 142.851562 C 315.390625 143.007812 313.804688 144.882812 313.804688 148.695312 C 313.804688 176.03125 313.800781 203.363281 313.800781 230.695312 C 313.800781 232.035156 313.800781 233.371094 313.800781 234.800781 Z M 65.148438 235.304688 C 65.148438 233.347656 65.148438 232 65.148438 230.648438 C 65.148438 220.835938 65.148438 211.019531 65.148438 201.203125 C 65.148438 183.558594 65.160156 165.917969 65.121094 148.273438 C 65.117188 147.101562 65.070312 145.664062 64.433594 144.804688 C 62.789062 142.601562 57.800781 142.183594 54.28125 143.632812 C 51.660156 144.710938 52.171875 147.019531 52.167969 149.0625 C 52.140625 162.601562 52.140625 176.144531 52.160156 189.691406 C 52.175781 202.734375 52.183594 215.78125 52.273438 228.824219 C 52.300781 232.433594 54.066406 234.636719 57.640625 235.234375 C 59.90625 235.609375 62.289062 235.304688 65.148438 235.304688 Z M 122.390625 180.828125 C 122.390625 183.40625 122.390625 185.257812 122.390625 187.113281 C 122.390625 189.050781 122.390625 190.992188 122.390625 192.980469 C 167.429688 192.980469 211.945312 192.980469 256.441406 192.980469 C 256.441406 188.886719 256.441406 185.097656 256.441406 180.828125 C 211.765625 180.828125 167.347656 180.828125 122.390625 180.828125 Z M 311.71875 186.609375 C 311.71875 168.476562 311.714844 150.34375 311.71875 132.214844 C 311.722656 127.566406 310.070312 125.613281 305.445312 125.640625 C 303.035156 125.65625 300.585938 126.308594 298.230469 126.960938 C 295.414062 127.742188 294.398438 129.570312 294.414062 132.738281 C 294.550781 169 294.558594 205.265625 294.402344 241.527344 C 294.386719 245 295.828125 246.839844 298.511719 248.199219 C 302.027344 249.984375 305.402344 249.378906 308.835938 247.636719 C 311.960938 246.046875 311.734375 243.394531 311.730469 240.632812 C 311.707031 222.625 311.71875 204.617188 311.71875 186.609375 Z M 67.328125 186.320312 C 67.328125 194.519531 67.328125 202.714844 67.328125 210.914062 C 67.328125 221.347656 67.414062 231.785156 67.269531 242.214844 C 67.230469 244.976562 68.203125 246.726562 70.613281 247.800781 C 71.628906 248.253906 72.652344 248.753906 73.722656 249.011719 C 77.113281 249.816406 79.945312 248.679688 82.765625 246.722656 C 85.183594 245.042969 84.503906 242.816406 84.507812 240.714844 C 84.550781 212.023438 84.535156 183.328125 84.535156 154.636719 C 84.53125 147.183594 84.382812 139.726562 84.609375 132.277344 C 84.695312 129.582031 83.65625 128.289062 81.433594 127.191406 C 78.535156 125.761719 75.546875 125.257812 72.40625 125.65625 C 68.816406 126.109375 67.328125 127.910156 67.328125 131.539062 C 67.328125 149.800781 67.328125 168.0625 67.328125 186.320312 Z M 86.71875 188.832031 C 86.71875 211.683594 86.769531 234.539062 86.660156 257.394531 C 86.644531 260.511719 87.859375 262.585938 90.257812 264.246094 C 93.675781 266.59375 97.503906 267.605469 101.5625 267.152344 C 108.050781 266.433594 113.261719 264.414062 113.058594 255.246094 C 112.6875 238.113281 112.953125 220.96875 112.949219 203.824219 C 112.949219 176.25 112.917969 148.675781 112.984375 121.105469 C 112.992188 117.847656 112.265625 115.128906 109.285156 113.5625 C 104.171875 110.878906 98.734375 109.910156 93.078125 111.433594 C 88.867188 112.570312 86.714844 115.589844 86.714844 119.894531 C 86.710938 142.871094 86.714844 165.851562 86.71875 188.832031 Z M 292.367188 188.8125 C 292.367188 165.953125 292.367188 143.097656 292.367188 120.238281 C 292.367188 115.53125 290.160156 112.488281 285.578125 111.332031 C 280.167969 109.964844 274.960938 110.9375 270.046875 113.378906 C 267.101562 114.847656 265.960938 117.417969 265.964844 120.734375 C 266 165.703125 265.992188 210.664062 265.96875 255.632812 C 265.964844 262.628906 268.054688 265.195312 275.265625 266.875 C 278.722656 267.679688 282.175781 267.300781 285.5 265.984375 C 290.769531 263.898438 292.371094 261.554688 292.371094 255.890625 C 292.371094 233.53125 292.371094 211.171875 292.367188 188.8125 Z M 256.683594 195.449219 C 211.789062 195.449219 167.367188 195.449219 122.394531 195.449219 C 122.394531 198.554688 122.394531 201.488281 122.394531 204.421875 C 122.394531 206.53125 122.386719 208.644531 122.394531 210.757812 C 122.421875 216.796875 121.34375 218.09375 115.105469 219.171875 C 115.105469 220.441406 115.105469 221.78125 115.105469 223.121094 C 115.128906 234.925781 115.167969 246.726562 115.160156 258.53125 C 115.15625 262.054688 113.324219 264.621094 110.503906 266.511719 C 104.015625 270.867188 93.730469 270.214844 87.859375 265.0625 C 85.429688 262.929688 83.875 260.503906 84.429688 256.925781 C 84.839844 254.300781 84.511719 251.558594 84.511719 248.460938 C 82.765625 249.378906 81.539062 250.238281 80.175781 250.699219 C 75.101562 252.421875 70.578125 251.117188 66.757812 247.601562 C 65.824219 246.738281 65.367188 245.085938 65.183594 243.734375 C 64.921875 241.808594 65.117188 239.816406 65.117188 237.652344 C 63.246094 237.652344 61.671875 237.65625 60.101562 237.652344 C 53.285156 237.621094 49.855469 234.082031 50.019531 227.3125 C 50.085938 224.464844 50.03125 221.621094 50.03125 218.726562 C 40.574219 217.804688 41.332031 210.582031 40.832031 204.160156 C 39.785156 203.851562 38.855469 203.550781 37.90625 203.304688 C 35.195312 202.589844 33.417969 200.675781 33.207031 198.097656 C 32.890625 194.304688 32.917969 190.414062 33.40625 186.636719 C 33.910156 182.683594 36.863281 180.828125 41.148438 180.390625 C 41.148438 176.730469 41.011719 173.15625 41.191406 169.605469 C 41.375 165.949219 42.980469 164.007812 45.972656 163.398438 C 47.175781 163.15625 48.417969 163.117188 50.035156 162.941406 C 50.035156 157.804688 50.027344 152.621094 50.042969 147.4375 C 50.054688 143.386719 50.976562 141.914062 54.976562 141.363281 C 58.191406 140.917969 61.515625 141.273438 65.128906 141.273438 C 65.128906 138.183594 65.195312 134.722656 65.109375 131.265625 C 65.015625 127.339844 66.289062 125.304688 70.011719 124.054688 C 73.84375 122.769531 77.605469 123.246094 81.273438 124.765625 C 82.179688 125.140625 83.054688 125.574219 84.445312 126.203125 C 84.445312 124.542969 84.585938 123.226562 84.421875 121.957031 C 83.613281 115.832031 87.078125 110.578125 93.070312 109.1875 C 98.59375 107.90625 103.988281 108.707031 109.066406 111.019531 C 113.058594 112.839844 115.265625 115.867188 115.179688 120.683594 C 114.960938 132.730469 115.105469 144.78125 115.105469 156.835938 C 115.105469 158.050781 115.105469 159.273438 115.105469 160.605469 C 115.996094 160.605469 116.59375 160.5625 117.183594 160.613281 C 120.851562 160.925781 122.484375 162.746094 122.460938 166.394531 C 122.4375 170.46875 122.457031 174.542969 122.457031 178.417969 C 167.207031 178.417969 211.644531 178.417969 256.691406 178.417969 C 256.691406 175.078125 256.730469 171.40625 256.679688 167.738281 C 256.601562 162.070312 257.667969 160.890625 263.949219 160.441406 C 263.949219 159.164062 263.949219 157.847656 263.949219 156.53125 C 263.949219 144.480469 264.070312 132.425781 263.878906 120.378906 C 263.808594 116.054688 265.707031 113.1875 269.253906 111.398438 C 274.617188 108.695312 280.359375 107.835938 286.257812 109.269531 C 291.914062 110.644531 295.375 115.863281 294.691406 121.585938 C 294.589844 122.445312 294.535156 123.316406 294.527344 124.179688 C 294.519531 124.65625 294.644531 125.140625 294.742188 125.839844 C 297.074219 125.070312 299.210938 124.140625 301.441406 123.675781 C 305.207031 122.890625 308.847656 123.214844 312.003906 125.816406 C 313.5625 127.101562 314.191406 128.519531 314.027344 130.65625 C 313.753906 134.214844 313.953125 137.808594 313.953125 141.0625 C 317.507812 141.148438 320.90625 140.917969 324.207031 141.382812 C 327.898438 141.90625 328.988281 143.554688 329.023438 147.230469 C 329.066406 152.320312 329.082031 157.410156 329.117188 162.507812 C 329.117188 162.617188 329.21875 162.722656 329.34375 162.960938 C 329.582031 163.019531 329.910156 163.160156 330.242188 163.171875 C 335.773438 163.324219 337.808594 165.292969 337.976562 170.863281 C 338.070312 173.945312 337.992188 177.035156 337.992188 179.535156 C 340.394531 181.035156 342.945312 181.824219 344.105469 183.546875 C 345.457031 185.566406 345.664062 188.386719 346.230469 190.886719 C 346.445312 191.835938 346.308594 192.863281 346.292969 193.859375 C 346.203125 200.578125 344.898438 202.269531 338.273438 204.132812 C 337.679688 210.359375 338.535156 217.625 329.046875 218.722656 C 329.046875 221.878906 329.007812 225.078125 329.058594 228.277344 C 329.140625 233.3125 326 237.011719 320.910156 237.515625 C 318.722656 237.734375 316.496094 237.550781 313.851562 237.550781 C 313.851562 239.699219 313.644531 241.671875 313.90625 243.578125 C 314.1875 245.617188 313.300781 246.882812 311.902344 248.0625 C 307.226562 252.015625 301.714844 252.488281 296.371094 249.390625 C 295.960938 249.152344 295.527344 248.957031 294.519531 248.441406 C 294.519531 251.539062 294.1875 254.253906 294.601562 256.847656 C 295.113281 260.085938 293.886719 262.414062 291.78125 264.503906 C 285.976562 270.273438 274.46875 271.109375 267.992188 266.128906 C 265.125 263.921875 263.734375 261.136719 263.828125 257.171875 C 264.113281 244.878906 263.929688 232.574219 263.910156 220.277344 C 263.910156 219.921875 263.753906 219.566406 263.625 219.03125 C 263.0625 218.953125 262.472656 218.886719 261.894531 218.78125 C 258.171875 218.105469 256.699219 216.300781 256.6875 212.34375 C 256.671875 206.898438 256.683594 201.449219 256.683594 195.449219 " fill-opacity="1" fill-rule="nonzero"/></g></svg>